<svg width="40" height="35" viewBox="0 0 56 50" fill="none" xmlns="http://www.w3.org/2000/svg">
<path d="M27.1407 49.8366C27.3858 49.9183 27.6308 50 27.8759 50C28.121 50 28.3661 49.9183 28.6112 49.8366C50.2616 41.0131 57.5328 25.1634 55.2452 13.317C53.6929 5.31046 47.974 0.163399 40.7027 0.163399C36.6178 0.163399 32.206 1.79739 27.8759 4.98366C23.5459 1.71569 19.0524 0 14.9674 0C7.69621 0 1.97725 5.22876 0.424965 13.2353C-1.94432 25.2451 5.40863 41.1765 27.1407 49.8366V49.8366ZM4.18314 14.0523C5.32693 7.92484 9.57529 4.00327 14.8857 4.00327C18.4805 4.00327 22.5655 5.71896 26.5688 9.06863C27.3041 9.64052 28.2844 9.64052 29.0197 9.06863C33.023 5.80065 37.0263 4.16667 40.621 4.16667C45.9315 4.16667 50.1799 8.08824 51.3237 14.134C53.2844 24.2647 46.7485 37.9902 27.7942 45.9967C8.84 37.9902 2.22235 24.2647 4.18314 14.0523Z" fill="#FF6868"/>
</svg>
