<svg width="490" height="375" viewBox="0 0 490 375" fill="none" xmlns="http://www.w3.org/2000/svg">
<g clip-path="url(#clip0_14_239)">
<path d="M456.849 322.952L457.687 304.119C466.418 299.452 476.157 296.987 486.057 296.938C472.431 308.078 474.134 329.552 464.896 344.533C461.979 349.184 458.053 353.118 453.409 356.045C448.764 358.971 443.521 360.816 438.067 361.44L426.664 368.422C425.1 359.699 425.445 350.741 427.675 342.165C429.906 333.588 433.97 325.597 439.586 318.743C442.775 314.928 446.432 311.531 450.47 308.63C453.201 315.831 456.849 322.952 456.849 322.952Z" fill="#F2F2F2"/>
<path d="M283.936 373.11C278.128 372.697 276.613 373.842 267.826 373.11H251.717L253.813 334.559L279.174 344.721L405.203 347.815L405.129 348.029C405.072 348.193 399.477 364.561 403.851 370.759L404.032 371.015L403.678 371.019L288.065 372.079C286.803 372.09 285.188 373.199 283.936 373.11Z" fill="#F2F2F2"/>
<path d="M290.473 373.614C279.254 372.816 267.637 377.177 257.941 372.253L250.19 372.723L250.168 372.658C250.108 372.479 246.447 343.671 253.848 332.502L254.174 332.01L254.429 334.656L251.989 370.541L257.397 368.737C270.531 374.919 286.152 370.836 301.185 370.779L403.49 370.401C405.633 370.394 407.418 371.858 407.475 373.666L407.481 373.842L296.652 373.834C294.585 373.834 292.526 373.76 290.473 373.614Z" fill="#CCCCCC"/>
<path d="M398.097 355.59L282.969 353.302L282.851 353.258L255.65 343.063L256.164 341.692L283.248 351.843L398.127 354.125L398.097 355.59Z" fill="#E6E6E6"/>
<path d="M397.483 361.755L282.354 359.466L282.237 359.422L255.036 349.228L255.55 347.857L282.634 358.008L397.512 360.29L397.483 361.755Z" fill="#E6E6E6"/>
<path d="M396.869 367.92L281.74 365.631L281.623 365.587L254.421 355.392L254.935 354.021L282.02 364.172L396.898 366.456L396.869 367.92Z" fill="#E6E6E6"/>
<path d="M291.268 348.213C280.594 347.492 270.186 344.555 260.709 339.59L252.729 335.358L252.938 333.266C252.996 332.958 253.166 332.684 253.414 332.494C253.663 332.305 253.972 332.214 254.284 332.239L254.988 332.248L362.356 333.828C369.383 333.915 376.346 335.179 382.956 337.567L406.35 346.06L406.337 346.183C406.141 348.154 404.153 349.678 401.812 349.651L296.051 348.411C294.451 348.392 292.857 348.326 291.268 348.213Z" fill="#E6E6E6"/>
<path d="M406.125 346.513L406.101 346.511L277.347 343.561L277.258 343.52L254.044 332.77L254.28 332.411L254.985 332.419L277.563 342.88L405.123 345.8L406.145 345.825L406.125 346.513Z" fill="#CCCCCC"/>
<path d="M306.03 333.172L304.396 333.149L267.497 332.603L265.748 332.578C274.179 341.554 292.821 343.8 320.146 340.322L306.03 333.172Z" fill="#CCCCCC"/>
<path d="M409.774 118.487L412.025 123.724L408.346 142.319L370.815 137.101L371.114 114.426L371.868 109.46L409.774 118.487Z" fill="#FFB6B6"/>
<path d="M429.164 359.49H420.884L416.943 327.553H429.164V359.49Z" fill="#FFB6B6"/>
<path d="M404.535 370.3C404.535 371.238 404.908 372.137 405.572 372.8C406.235 373.464 407.134 373.837 408.072 373.837H423.825L426.54 368.232L427.595 373.837H433.533L431.863 353.816L429.165 353.658L420.096 353.119L418.635 353.027V358.699L406.062 367.385C405.591 367.711 405.206 368.146 404.94 368.654C404.673 369.162 404.534 369.727 404.535 370.3Z" fill="#2F2E41"/>
<path d="M352.632 322.878H344.351L339.48 275.859L355.038 274.929L352.632 322.878Z" fill="#FFB6B6"/>
<path d="M328.001 333.688C328.002 334.625 328.375 335.525 329.038 336.188C329.701 336.851 330.601 337.224 331.539 337.225H347.292L350.007 331.62L351.062 337.225H356.999L355.33 317.204L352.922 317.063L343.696 316.506L342.102 316.415V322.087L329.529 330.773C329.058 331.099 328.672 331.534 328.406 332.042C328.14 332.55 328.001 333.114 328.001 333.688V333.688Z" fill="#2F2E41"/>
<path d="M432.679 331.949H432.647L431.054 280.019C432.085 278.031 432.608 275.82 432.577 273.581C432.546 271.342 431.962 269.146 430.876 267.187L430.648 266.775L431.239 264.034C431.999 260.514 431.65 256.845 430.242 253.53L428.756 205.089C434.064 170.693 408.77 148.26 408.77 148.26L411.095 130.232L370.184 131.162L370.88 148.26L362.745 176.209C358.464 217.917 329.652 244.133 334.032 284.018C334.041 284.133 334.023 284.248 333.982 284.355C333.537 285.706 333.381 287.135 333.522 288.551C333.664 289.966 334.101 291.336 334.804 292.572C334.986 292.887 335.112 293.233 335.174 293.591C336.077 300.584 336.194 291.739 337.39 298.669L337.157 298.787C336.319 299.076 335.96 300.237 336.354 301.379C336.749 302.521 337.748 303.213 338.585 302.924L360.455 303.158C361.293 302.869 361.652 301.708 361.258 300.566C360.864 299.423 359.865 298.732 359.027 299.021L357.667 299.709L359.943 292.261L360.741 291.517C361.123 291.16 361.42 290.721 361.608 290.233C361.797 289.745 361.873 289.221 361.831 288.7C361.788 288.179 361.629 287.674 361.364 287.223C361.098 286.772 360.735 286.387 360.3 286.097L362.567 273.995L362.245 264.842L362.909 254.458L391.605 212.877L403.214 270.313L415.073 332.527C414.797 332.777 414.589 333.093 414.47 333.446C414.351 333.799 414.324 334.177 414.393 334.543C414.502 335.054 414.786 335.512 415.195 335.837C415.605 336.162 416.115 336.335 416.638 336.326H432.737C433.074 336.325 433.407 336.247 433.71 336.097C434.012 335.947 434.276 335.729 434.48 335.46C434.684 335.192 434.824 334.88 434.888 334.548C434.952 334.217 434.938 333.875 434.849 333.55C434.713 333.082 434.427 332.671 434.035 332.382C433.643 332.093 433.166 331.941 432.679 331.949V331.949Z" fill="#2F2E41"/>
<path d="M418.363 30.1248C418.364 33.4403 417.551 36.7054 415.996 39.6335C414.441 42.5616 412.19 45.0632 409.443 46.9186C406.695 48.7741 403.534 49.9266 400.237 50.2751C396.94 50.6236 393.607 50.1574 390.532 48.9175C387.457 47.6775 384.734 45.7016 382.601 43.1634C380.468 40.6251 378.99 37.602 378.299 34.3595C377.607 31.117 377.721 27.7542 378.632 24.5663C379.543 21.3785 381.223 18.463 383.524 16.0758L383.621 15.9787C383.783 15.8085 383.945 15.6384 384.115 15.4763C384.116 15.4763 384.118 15.4761 384.119 15.4757C384.119 15.4753 384.12 15.4747 384.121 15.4739C384.122 15.4732 384.122 15.4723 384.123 15.4713C384.123 15.4703 384.123 15.4692 384.123 15.4681C384.356 15.2986 384.57 15.1058 384.764 14.8929C387.498 11.072 390.598 7.86815 398.108 9.86973C408.919 12.7514 418.363 18.9358 418.363 30.1248Z" fill="#2F2E41"/>
<path d="M307.097 21.4538C307.051 22.5375 307.244 23.618 307.66 24.6194C308.077 25.6207 308.709 26.5185 309.51 27.2495C310.311 27.9804 311.263 28.5268 312.299 28.85C313.334 29.1733 314.428 29.2656 315.503 29.1205L367.739 71.9909L375.718 57.9669L321.862 20.2365C321.499 18.4469 320.492 16.8527 319.031 15.7562C317.571 14.6597 315.759 14.1369 313.939 14.2869C312.119 14.437 310.417 15.2494 309.156 16.5703C307.895 17.8912 307.163 19.6288 307.097 21.4538V21.4538Z" fill="#FFB6B6"/>
<path d="M389.796 84.6339C389.796 84.6339 389.78 83.0899 381.476 83.1493C371.169 83.223 342.78 68.4245 345.263 54.4874C344.084 55.0202 342.762 55.1455 341.504 54.8438C340.246 54.542 339.124 53.8303 338.315 52.8207L352.135 39.5147C356.472 39.8076 356.516 42.7095 356.144 44.3758L367.251 48.7893L396.18 65.4092L391.071 82.1034L389.796 84.6339Z" fill="#504F67"/>
<path d="M393.117 51.7959C402.498 51.7959 410.102 44.1916 410.102 34.8112C410.102 25.4308 402.498 17.8265 393.117 17.8265C383.737 17.8265 376.133 25.4308 376.133 34.8112C376.133 44.1916 383.737 51.7959 393.117 51.7959Z" fill="#FFB7B7"/>
<path d="M369.773 119.291C368.835 120.544 368.356 122.08 368.417 123.644C368.477 125.207 369.074 126.702 370.106 127.878C370.114 128.376 370.189 128.858 370.895 130.643C370.987 130.816 371.095 130.98 371.218 131.133C371.241 131.17 371.266 131.206 371.293 131.241C372.037 132.203 373.07 132.899 374.241 133.226L405.332 141.904L409.442 143.049L410.165 143.249L410.563 137.635C411.488 136.869 412.107 135.797 412.31 134.614C412.512 133.43 412.285 132.213 411.668 131.183L411.095 130.236L414.433 121.26L414.757 120.371L423.269 97.46L423.277 95.932L423.293 94.3543L423.377 83.343C423.38 79.8726 422.58 76.4484 421.039 73.3392C419.497 70.23 417.256 67.5203 414.491 65.4227C411.973 63.4985 409.07 62.139 405.979 61.4368L405.913 61.4284L402.55 56.9027L388.906 58.2646L387.777 60.5814L386.407 63.3716L376.516 69.2592L373.137 77.1149L370.853 82.4295C367.315 84.9706 365.206 88.2342 364.6 92.1205C363.305 100.375 369.084 108.637 369.773 109.584L369.948 119.059L369.773 119.291Z" fill="#504F67"/>
<path d="M410.893 39.2639C410.739 39.2395 410.585 39.2071 410.431 39.1828C407.781 38.7129 405.132 38.2511 402.491 37.773L402.248 31.7857L399.047 37.1492C391.747 39.5717 384.917 38.2025 378.493 35.1804C376.373 34.1744 374.317 33.0407 372.335 31.7857C371.682 21.6598 375.776 15.1773 383.394 15.8571C383.673 15.882 383.872 15.5979 384.115 15.4763C384.116 15.4763 384.117 15.4761 384.118 15.4757C384.119 15.4753 384.12 15.4747 384.121 15.4739C384.122 15.4732 384.122 15.4723 384.123 15.4713C384.123 15.4703 384.123 15.4692 384.123 15.4681C384.537 15.2737 384.958 15.0874 385.379 14.9173C388.678 13.6283 392.274 13.3018 395.751 13.9759C399.227 14.65 402.441 16.2969 405.019 18.7252C410.204 23.6756 412.537 31.8505 410.893 39.2639Z" fill="#2F2E41"/>
<path d="M410.431 39.1828C410.431 39.1828 405.399 20.4023 383.832 16.0677C383.808 16.0597 383.726 16.0272 383.621 15.9787C383.556 15.9381 383.475 15.8976 383.394 15.8571C383.637 15.7194 383.872 15.5979 384.115 15.4763C384.116 15.4763 384.118 15.4761 384.119 15.4757C384.12 15.4753 384.12 15.4747 384.121 15.4739C384.122 15.4732 384.123 15.4723 384.123 15.4713C384.123 15.4703 384.124 15.4692 384.123 15.4681C384.334 15.2737 384.545 15.0793 384.764 14.8929L385.379 14.9173C385.379 14.9173 407.02 11.4901 410.431 39.1828Z" fill="#FD6584"/>
<path d="M418.728 157.571C418.329 157.912 417.843 158.137 417.324 158.221C416.806 158.305 416.274 158.245 415.787 158.047C414.819 157.636 413.959 157.007 413.274 156.208C410.48 153.278 408.484 149.68 407.476 145.759L408.408 144.101C408.042 142.057 408.386 139.949 409.383 138.128C410.38 136.306 411.97 134.881 413.889 134.087C414.981 133.624 416.192 133.519 417.347 133.787C417.92 133.929 418.444 134.223 418.863 134.639C419.283 135.054 419.582 135.575 419.73 136.147C420.089 137.92 418.612 139.521 417.116 140.539C414.51 142.307 411.498 143.385 408.361 143.671C412.198 145.834 415.514 148.81 418.078 152.391C418.67 153.138 419.107 153.996 419.363 154.915C419.486 155.375 419.492 155.859 419.381 156.323C419.27 156.787 419.046 157.215 418.728 157.571Z" fill="#2F2E41"/>
<path d="M279.741 139.69V140.167C278.714 138.964 277.667 137.771 276.629 136.578C276.194 136.081 275.758 135.583 275.323 135.085C273.476 132.99 271.62 130.902 269.753 128.82C267.876 126.746 265.998 124.672 264.1 122.608C263.644 122.11 263.188 121.612 262.721 121.114C262.348 120.696 261.942 120.308 261.507 119.953C261.069 119.588 260.566 119.31 260.024 119.133C259.401 118.96 258.743 118.953 258.116 119.113C257.4 119.279 256.716 119.538 256.021 119.756C255.305 119.994 254.6 120.222 253.884 120.45C252.453 120.917 251.032 121.384 249.601 121.851C249.584 121.858 249.565 121.861 249.547 121.861C249.528 121.861 249.509 121.857 249.492 121.85C249.475 121.843 249.46 121.832 249.447 121.819C249.434 121.806 249.423 121.79 249.416 121.773L249.414 121.768C249.406 121.748 249.402 121.727 249.403 121.706C249.404 121.684 249.41 121.664 249.42 121.645C249.43 121.626 249.444 121.61 249.461 121.597C249.478 121.584 249.497 121.575 249.518 121.571C249.871 121.457 250.234 121.343 250.597 121.228C252.038 120.751 253.469 120.285 254.911 119.818C255.627 119.579 256.342 119.351 257.058 119.123C257.722 118.871 258.423 118.731 259.133 118.708C260.291 118.791 261.378 119.301 262.182 120.139C262.628 120.554 263.032 120.99 263.437 121.436C263.914 121.954 264.391 122.473 264.868 122.992C266.787 125.087 268.692 127.189 270.583 129.298C272.481 131.413 274.361 133.533 276.225 135.655C276.36 135.811 276.494 135.967 276.629 136.122C277.677 137.304 278.704 138.497 279.741 139.69Z" fill="white"/>
<path d="M261.347 121.864C260.955 121.359 260.432 120.971 259.836 120.741L259.246 120.762C263.875 127.965 269.94 134.136 277.061 138.89C271.823 133.215 266.585 127.539 261.347 121.864Z" fill="white"/>
<path d="M357.952 196.721L334.455 70.9144C334.053 68.8405 332.959 66.9648 331.351 65.5947C329.743 64.2246 327.717 63.4414 325.606 63.3737C325.416 63.3695 325.226 63.3695 325.036 63.3737L309.03 63.9479L307.307 64.0112L299.319 64.2983L297.596 64.3574L292.458 64.5432L188.847 68.2629C188.691 68.2713 188.53 68.2713 188.374 68.2671L165.157 67.7816L156.565 67.6042L156.29 67.6L149.948 67.4649L94.6892 66.3165L80.0385 66.0082L72.8144 65.8605L71.0834 65.8225L62.846 65.6536L61.1192 65.6156L52.6918 65.4425L50.9649 65.4045L41.7058 65.2102L40.2534 65.1807L31.9949 65.0076L30.6903 64.9823H30.5003C28.3078 64.9912 26.1891 65.775 24.5187 67.1951C22.8483 68.6151 21.7337 70.5801 21.372 72.7425L0.122057 203.291C-0.093735 204.613 -0.0194404 205.967 0.339777 207.258C0.698995 208.548 1.33454 209.746 2.20241 210.767C3.07029 211.788 4.14973 212.608 5.36596 213.17C6.58219 213.732 7.90614 214.023 9.24607 214.023H131.282C133.079 214.028 134.827 214.605 136.273 215.67L138.587 217.384C140.181 218.558 142.108 219.194 144.088 219.2C167.658 212.979 192.438 212.979 216.008 219.2C217.223 219.203 218.427 218.965 219.549 218.5C220.672 218.034 221.691 217.351 222.548 216.489C224.013 215.024 225.968 214.154 228.037 214.044L349.347 207.652C350.662 207.583 351.948 207.234 353.118 206.628C354.287 206.022 355.314 205.173 356.129 204.138C356.943 203.103 357.528 201.906 357.842 200.627C358.156 199.348 358.194 198.016 357.952 196.721V196.721Z" fill="#CCCCCC"/>
<path d="M324.707 177.103C324.552 181.366 322.709 185.393 319.586 188.299C316.462 191.204 312.312 192.75 308.049 192.597C301.005 192.348 292.598 192.224 283.475 192.414C253.68 193.051 216.247 197.152 193.731 211.899C190.901 213.757 187.557 214.674 184.175 214.521C183.926 214.506 183.684 214.491 183.435 214.469C179.929 214.149 176.626 212.685 174.033 210.303C161.629 198.953 133.181 185.209 68.0628 184.242C67.7918 184.242 67.5282 184.228 67.2646 184.213C65.1555 184.08 63.0932 183.533 61.1956 182.603C59.2981 181.673 57.6024 180.378 56.2056 178.792C54.8088 177.206 53.7382 175.36 53.0551 173.361C52.372 171.361 52.0897 169.246 52.2243 167.137L58.6241 65.5673L59.5834 50.3439L61.2675 23.7121C61.4374 21.0301 62.6219 18.5134 64.5804 16.6732C66.5389 14.833 69.1245 13.8074 71.8119 13.8049H71.8778L110.672 14.0319C127.016 14.7714 140.553 16.8534 151.282 20.2779C154.948 21.4145 158.513 22.8496 161.944 24.5689C166.63 26.8406 170.839 29.9843 174.348 33.8318C176.534 36.2897 179.515 37.8995 182.769 38.379C183.274 38.4544 183.782 38.5009 184.292 38.5182C187.293 38.6423 190.254 37.7949 192.735 36.1018C218.078 19.121 269.723 17.8323 298.244 18.5645C302.233 18.6575 306.044 20.232 308.935 22.9812C311.827 25.7304 313.591 29.4575 313.885 33.4364L315.042 48.5865L316.191 63.6927L322.825 150.998L324.671 175.287C324.716 175.891 324.728 176.497 324.707 177.103V177.103Z" fill="#F2F2F2"/>
<path d="M77.7141 49.5456C101.093 42.0868 127.174 44.0615 149.322 54.5695C155.642 57.5521 161.61 61.228 167.117 65.5294C168.675 66.7521 170.892 64.5651 169.317 63.3293C148.975 47.5511 123.415 40.0558 97.773 42.3492C90.679 42.984 83.6755 44.391 76.8869 46.5453C74.9865 47.1516 75.7987 50.1567 77.714 49.5456H77.7141Z" fill="#3F3D56"/>
<path d="M206.358 66.7364C228.094 55.3118 254.122 52.8205 277.754 59.3056C284.492 61.15 291.003 63.7389 297.168 67.0243C298.934 67.9666 300.507 65.2817 298.738 64.3377C276.214 52.3191 249.177 49.5524 224.581 56.2521C217.719 58.1244 211.082 60.739 204.787 64.0497C203.014 64.9818 204.585 67.6682 206.358 66.7364Z" fill="#3F3D56"/>
<path d="M206.358 87.4796C228.094 76.055 254.122 73.5637 277.754 80.0488C284.492 81.8932 291.003 84.4821 297.168 87.7675C298.934 88.7099 300.507 86.0249 298.738 85.0808C276.214 73.0623 249.177 70.2956 224.581 76.9952C217.719 78.8675 211.082 81.4822 204.787 84.7929C203.014 85.7249 204.585 88.4114 206.358 87.4796L206.358 87.4796Z" fill="#3F3D56"/>
<path d="M299.499 107.11C299.516 106.843 299.451 106.577 299.315 106.347C299.178 106.117 298.975 105.934 298.733 105.82C280.689 96.3722 260.231 92.5401 239.991 94.8173C239.864 94.8275 239.747 94.8478 239.61 94.8579H239.605C239.48 94.8691 239.356 94.8878 239.234 94.9138C227.196 96.2991 215.517 99.8987 204.788 105.531C204.554 105.67 204.36 105.868 204.226 106.105C204.091 106.342 204.021 106.609 204.021 106.882V145.578C204.025 145.816 204.083 146.05 204.191 146.262C204.298 146.475 204.453 146.66 204.643 146.804C204.833 146.947 205.053 147.046 205.286 147.092C205.52 147.139 205.761 147.131 205.991 147.07C206.469 146.933 206.946 146.801 207.433 146.674C218.28 143.738 229.415 141.997 240.64 141.48C240.879 141.47 241.118 141.46 241.367 141.45C250.509 141.057 259.669 141.386 268.76 142.435C268.95 142.445 269.14 142.466 269.329 142.495C269.796 142.546 270.273 142.602 270.74 142.663C270.928 142.683 271.106 142.704 271.278 142.734C273.096 142.963 274.899 143.222 276.706 143.501C279.316 143.917 281.926 144.381 284.536 144.892C284.698 144.923 284.866 144.963 285.033 144.994C289.222 145.826 293.391 146.791 297.539 147.857C297.77 147.917 298.012 147.923 298.246 147.876C298.48 147.829 298.7 147.729 298.889 147.584C299.079 147.44 299.233 147.254 299.341 147.041C299.448 146.828 299.506 146.593 299.509 146.354V107.171C299.511 107.15 299.508 107.129 299.499 107.11V107.11Z" fill="#3F3D56"/>
<path d="M242.43 96.9273C241.29 96.369 239.983 96.2542 238.764 96.6053C238.225 96.8073 237.731 97.1143 237.312 97.5085C236.893 97.9028 236.556 98.3763 236.322 98.9018C235.899 99.9092 235.628 100.974 235.518 102.061C235.454 102.488 235.449 103.028 235.879 103.227C236.035 103.284 236.204 103.297 236.366 103.265C236.529 103.232 236.68 103.156 236.803 103.045C237.025 102.826 237.208 102.571 237.343 102.29C238.09 101.129 239.117 100.175 240.329 99.5158C241.542 98.8566 242.901 98.5136 244.281 98.5185L245.429 98.9763C244.526 98.1623 243.517 97.4732 242.43 96.9273V96.9273Z" fill="#FF6582"/>
<path d="M254.862 105.846C253.971 104.534 252.915 103.133 251.26 102.704C249.344 102.208 247.376 103.194 245.707 104.167C240.743 107.057 235.936 110.21 231.307 113.611L231.312 113.662L242.058 113.002C244.646 112.843 247.322 112.663 249.61 111.573C250.431 111.058 251.349 110.716 252.307 110.568C252.901 110.601 253.483 110.75 254.02 111.009C254.556 111.267 255.036 111.629 255.431 112.074C260.384 116.768 261.817 123.946 267.373 128.071C263.837 120.323 259.652 112.888 254.862 105.846V105.846Z" fill="white"/>
<path d="M241.368 141.449C241.12 141.459 240.881 141.47 240.642 141.48C238.91 140.858 237.137 140.308 235.343 139.831C234.181 139.52 232.999 139.24 231.816 139.001C230.478 138.711 229.13 138.483 227.782 138.285C225.215 137.912 222.627 137.694 220.034 137.632C220.014 137.634 219.994 137.632 219.976 137.626C219.957 137.62 219.939 137.61 219.925 137.597C219.91 137.584 219.898 137.568 219.89 137.55C219.882 137.531 219.878 137.512 219.878 137.492C219.878 137.472 219.882 137.453 219.89 137.435C219.898 137.417 219.91 137.401 219.925 137.387C219.939 137.374 219.957 137.364 219.976 137.358C219.994 137.352 220.014 137.35 220.034 137.352C220.366 137.352 220.698 137.362 221.019 137.383C223.618 137.479 226.209 137.732 228.777 138.14C230.115 138.358 231.453 138.617 232.781 138.908C233.984 139.178 235.187 139.478 236.369 139.81C238.06 140.287 239.726 140.833 241.368 141.449Z" fill="white"/>
<path d="M271.28 142.735C271.104 142.704 270.927 142.683 270.741 142.662C270.025 142.071 269.299 141.511 268.542 140.961C267.598 140.277 266.623 139.634 265.628 139.032C263.422 137.694 261.12 136.522 258.741 135.527C254.978 133.96 251.084 132.731 247.104 131.855C242.564 130.86 237.968 130.14 233.341 129.698C228.715 129.221 224.068 128.93 219.422 128.64C219.225 128.63 219.215 128.339 219.422 128.35C220.003 128.391 220.584 128.422 221.175 128.464C225.873 128.754 230.571 129.086 235.239 129.615C239.866 130.111 244.457 130.908 248.981 132C252.843 132.952 256.613 134.247 260.245 135.869C262.334 136.807 264.357 137.885 266.302 139.094C267.536 139.872 268.729 140.702 269.869 141.584C270.347 141.957 270.824 142.331 271.28 142.735Z" fill="white"/>
<path d="M269.33 142.496C269.141 142.466 268.951 142.445 268.76 142.434C268.542 142.258 268.314 142.092 268.086 141.926C266.489 140.783 264.823 139.74 263.097 138.804C261.529 137.952 259.92 137.18 258.274 136.491C254.513 134.92 250.619 133.691 246.637 132.82C242.097 131.825 237.501 131.105 232.874 130.662C228.248 130.185 223.602 129.895 218.955 129.605C218.758 129.584 218.758 129.304 218.955 129.314C219.547 129.356 220.127 129.387 220.708 129.428C225.406 129.719 230.105 130.05 234.772 130.579C239.4 131.075 243.99 131.872 248.514 132.965C252.377 133.915 256.147 135.21 259.778 136.834C261.147 137.456 262.485 138.13 263.792 138.866C265.73 139.93 267.581 141.144 269.33 142.496Z" fill="white"/>
<path d="M285.033 144.996C284.867 144.965 284.701 144.923 284.535 144.892C284.348 144.695 284.172 144.488 283.996 144.28C283.104 143.253 282.222 142.216 281.351 141.169C277.918 137.082 274.661 132.871 271.591 128.578C268.957 124.906 266.457 121.162 264.093 117.345C262.962 115.541 261.873 113.715 260.805 111.869C259.975 110.438 259.166 109.003 258.378 107.565C258.15 107.15 257.932 106.735 257.714 106.32C257.206 105.345 256.697 104.36 256.158 103.395C255.572 102.214 254.711 101.19 253.648 100.408C253.117 100.053 252.502 99.8418 251.864 99.7965C250.965 99.7999 250.081 100.028 249.292 100.46C243.49 103.162 238.016 106.521 232.978 110.469C228.057 114.296 223.608 118.693 219.723 123.568C219.598 123.713 219.329 123.579 219.443 123.423C219.909 122.842 220.386 122.261 220.864 121.691C224.597 117.274 228.802 113.278 233.403 109.774C233.413 109.764 233.434 109.753 233.444 109.743C233.849 109.421 234.253 109.11 234.668 108.809C237.237 106.918 239.91 105.173 242.675 103.582C244.086 102.763 245.527 101.985 247 101.249C247.363 101.062 247.736 100.875 248.11 100.699C248.483 100.512 248.857 100.336 249.23 100.159C249.969 99.7826 250.777 99.5603 251.605 99.5062C254.488 99.4647 255.971 102.369 256.998 104.329C257.32 104.941 257.652 105.553 257.973 106.165C259.218 108.478 260.514 110.78 261.863 113.051C262.682 114.462 263.532 115.862 264.393 117.252C265.627 119.233 266.893 121.193 268.21 123.143C268.21 123.144 268.21 123.146 268.211 123.147C268.211 123.148 268.212 123.149 268.213 123.15C268.214 123.151 268.215 123.152 268.216 123.153C268.217 123.153 268.219 123.153 268.22 123.153H268.22C269.745 125.456 271.332 127.717 272.971 129.968C275.781 133.815 278.727 137.577 281.807 141.252C282.865 142.517 283.94 143.765 285.033 144.996Z" fill="white"/>
<path d="M248.03 99.19L247.743 99.3154C247.086 98.2057 246.165 97.2756 245.062 96.6077C243.958 95.9398 242.707 95.5547 241.419 95.4869C237.173 95.1852 233.443 98.015 233.104 101.794C232.966 103.351 233.417 104.902 234.367 106.142L234.1 106.3C233.111 105.008 232.642 103.393 232.785 101.772C233.138 97.8361 237.023 94.8891 241.445 95.2032C242.786 95.2739 244.089 95.6748 245.238 96.3703C246.386 97.0659 247.346 98.0344 248.03 99.19V99.19Z" fill="#FF6582"/>
<path d="M227.048 106.837C225.934 106.352 224.72 106.139 223.507 106.217C222.295 106.294 221.118 106.659 220.074 107.281C223.885 107.865 227.663 108.65 231.391 109.632C229.848 108.827 228.64 107.565 227.048 106.837Z" fill="white"/>
<path d="M220.052 107.277L219.633 107.581C219.775 107.475 219.922 107.375 220.074 107.281L220.052 107.277Z" fill="white"/>
<path d="M232.69 109.038C232.523 108.872 232.357 108.706 232.188 108.54C230.897 107.135 229.343 105.998 227.613 105.192C226.732 104.821 225.787 104.626 224.832 104.618C223.845 104.641 222.868 104.831 221.944 105.179C221.509 105.333 221.084 105.509 220.666 105.696C220.187 105.91 219.717 106.139 219.249 106.369C218.371 106.802 217.505 107.253 216.649 107.724C214.948 108.66 213.299 109.667 211.704 110.746C210.877 111.306 210.067 111.884 209.275 112.48C208.537 113.034 207.815 113.603 207.107 114.186C206.956 114.311 206.73 114.11 206.881 113.985C207.068 113.831 207.257 113.677 207.445 113.525C207.978 113.097 208.519 112.676 209.069 112.264C210.072 111.511 211.1 110.787 212.155 110.092C213.795 109.011 215.491 108.003 217.244 107.068C218.12 106.601 219.008 106.154 219.908 105.727C220.18 105.598 220.455 105.472 220.733 105.352C221.368 105.068 222.023 104.83 222.693 104.642C223.655 104.366 224.66 104.279 225.654 104.383C226.607 104.505 227.531 104.789 228.387 105.224C230.082 106.175 231.612 107.395 232.916 108.836C233.053 108.973 232.828 109.175 232.69 109.038Z" fill="white"/>
<path d="M77.7141 70.2888C101.093 62.83 127.174 64.8047 149.322 75.3126C155.642 78.2953 161.61 81.9712 167.117 86.2726C168.675 87.4953 170.892 85.3083 169.317 84.0725C148.975 68.2943 123.415 60.7989 97.773 63.0924C90.679 63.7272 83.6755 65.1342 76.8869 67.2885C74.9865 67.8948 75.7987 70.8999 77.714 70.2888L77.7141 70.2888Z" fill="#3F3D56"/>
<path d="M77.7141 91.032C101.093 83.5732 127.174 85.5478 149.322 96.0558C155.642 99.0385 161.61 102.714 167.117 107.016C168.675 108.238 170.892 106.051 169.317 104.816C148.975 89.0375 123.415 81.5421 97.773 83.8355C90.679 84.4703 83.6755 85.8774 76.8869 88.0317C74.9865 88.6379 75.7987 91.6431 77.714 91.032L77.7141 91.032Z" fill="#3F3D56"/>
<path d="M77.7141 111.775C101.093 104.316 127.174 106.291 149.322 116.799C155.642 119.782 161.61 123.458 167.117 127.759C168.675 128.982 170.892 126.795 169.317 125.559C148.975 109.781 123.415 102.285 97.773 104.579C90.679 105.214 83.6755 106.621 76.8869 108.775C74.9865 109.381 75.7987 112.386 77.714 111.775L77.7141 111.775Z" fill="#3F3D56"/>
<path d="M77.7141 132.518C101.093 125.06 127.174 127.034 149.322 137.542C155.642 140.525 161.61 144.201 167.117 148.502C168.675 149.725 170.892 147.538 169.317 146.302C148.975 130.524 123.415 123.029 97.773 125.322C90.679 125.957 83.6755 127.364 76.8869 129.518C74.9865 130.124 75.7987 133.129 77.714 132.518L77.7141 132.518Z" fill="#3F3D56"/>
<path d="M77.7141 153.262C101.093 145.803 127.174 147.777 149.322 158.285C155.642 161.268 161.61 164.944 167.117 169.245C168.675 170.468 170.892 168.281 169.317 167.045C148.975 151.267 123.415 143.772 97.773 146.065C90.679 146.7 83.6755 148.107 76.8869 150.261C74.9865 150.868 75.7987 153.873 77.714 153.262H77.7141Z" fill="#3F3D56"/>
<path d="M161.944 24.5689V74.3103C161.944 75.2988 160.216 76.1262 157.887 76.3532C157.867 76.352 157.848 76.3545 157.829 76.3605C157.441 76.3898 157.031 76.4118 156.613 76.4118C155.329 76.4354 154.052 76.227 152.842 75.7967C152.732 75.7528 152.622 75.7015 152.513 75.6576C152.41 75.599 152.3 75.5478 152.198 75.4892C151.619 75.145 151.282 74.7423 151.282 74.3103V20.2779C154.948 21.4144 158.513 22.8496 161.944 24.5689V24.5689Z" fill="#504F67"/>
<path d="M184.291 36.1056H182.767V213.481H184.291V36.1056Z" fill="#E6E6E6"/>
<path d="M349.94 157.531C351.02 157.432 352.066 157.098 353.003 156.551C353.94 156.005 354.745 155.26 355.363 154.368C355.981 153.477 356.396 152.46 356.578 151.391C356.761 150.322 356.707 149.226 356.42 148.18L388.036 133.421L407.071 102.631L392.109 96.5903L379.268 121.402L346.768 143.06C345.043 143.658 343.597 144.869 342.704 146.462C341.812 148.055 341.535 149.921 341.926 151.704C342.317 153.488 343.349 155.067 344.826 156.141C346.303 157.214 348.123 157.709 349.94 157.531V157.531Z" fill="#FFB6B6"/>
<path d="M418.812 73.1346C418.812 73.1346 422.538 74.3509 418.448 81.5783C415.174 87.3645 399.225 120.693 392.716 127.237C393.401 128.335 393.701 129.629 393.569 130.916C393.438 132.203 392.882 133.41 391.989 134.346L376.961 122.421C376.674 118.083 379.544 117.653 381.245 117.799L384.702 105.546L396.761 75.3202L416.134 72.2076L418.812 73.1346Z" fill="#504F67"/>
<path d="M419.137 16.4815C419.847 13.6088 425.002 11.4876 416.172 7.47689C414.029 6.50353 414.118 3.15146 412.305 1.65028C410.493 0.149109 407.838 -0.546854 405.731 0.502409C403.85 1.4394 402.79 3.55983 402.564 5.64944C402.455 7.75257 402.698 9.85905 403.282 11.8824L403.111 12.1325C406.609 14.8089 410.106 17.4853 413.604 20.1616C414.889 21.1451 416.57 22.1749 418.01 21.437C419.64 20.6016 418.697 18.2601 419.137 16.4815Z" fill="#2F2E41"/>
</g>
<defs>
<clipPath id="clip0_14_239">
<rect width="490" height="374.637" fill="white"/>
</clipPath>
</defs>
</svg>
